<?xml version="1.0" standalone="no"?>
<!DOCTYPE svg PUBLIC "-//W3C//DTD SVG 20010904//EN"
 "http://www.w3.org/TR/2001/REC-SVG-20010904/DTD/svg10.dtd">
<svg version="1.0" xmlns="http://www.w3.org/2000/svg"
 width="500.000000pt" height="500.000000pt" viewBox="0 0 500.000000 500.000000"
 preserveAspectRatio="xMidYMid meet">

<g transform="translate(0.000000,500.000000) scale(0.100000,-0.100000)"
fill="#000000" stroke="none">
<path d="M1920 2805 l0 -915 650 0 650 0 0 101 c0 91 -2 100 -17 95 -10 -2
-106 -25 -213 -50 -322 -75 -541 -106 -756 -106 l-114 0 0 895 0 895 -100 0
-100 0 0 -915z"/>
<path d="M3376 2617 c-20 -20 -26 -36 -26 -69 1 -63 31 -120 105 -195 36 -37
65 -69 65 -70 0 -2 -8 -3 -17 -3 -34 -1 -137 -65 -160 -99 -13 -19 -23 -49
-23 -68 0 -62 77 -113 172 -113 63 0 142 33 255 107 l27 18 -24 -43 c-38 -67
-130 -148 -212 -187 -96 -46 -195 -65 -329 -65 -80 0 -108 -3 -103 -11 10 -17
243 -4 319 16 162 44 294 143 350 261 25 54 61 104 114 160 28 29 38 58 46
144 12 128 47 182 132 207 l48 13 -48 -4 c-92 -7 -137 -79 -152 -241 -7 -76
-25 -115 -35 -74 -4 17 -13 24 -30 24 -31 0 -40 -38 -15 -65 18 -20 11 -44
-19 -70 -14 -11 -16 -6 -16 43 0 98 -61 226 -147 309 -51 50 -137 91 -200 96
-45 4 -55 1 -77 -21z m181 -28 c136 -65 253 -272 229 -402 -6 -33 -16 -44 -77
-83 -104 -68 -145 -84 -218 -84 -75 0 -133 27 -151 71 -17 40 10 91 68 129 67
44 116 57 155 41 18 -8 47 -16 65 -18 29 -5 32 -3 32 21 0 30 -30 42 -86 33
-32 -5 -40 -1 -99 57 -61 60 -115 147 -115 188 0 31 23 67 49 77 35 13 75 5
148 -30z m308 -289 c4 -6 4 -18 1 -27 -5 -12 -9 -13 -21 -3 -8 7 -15 19 -15
26 0 16 26 19 35 4z m-220 -29 c10 -18 -14 -21 -47 -7 l-33 14 37 1 c20 1 39
-3 43 -8z"/>
</g>
</svg>
